<svg xmlns="http://www.w3.org/2000/svg" width="1400" height="1000" viewBox="0 0 1400 1000">
  <defs>
    <linearGradient id="air" x1="0" y1="0" x2="0" y2="1">
      <stop offset="0%" stop-color="#eef3ea"/>
      <stop offset="46%" stop-color="#cfdcc6"/>
      <stop offset="100%" stop-color="#6f8b62"/>
    </linearGradient>
    <filter id="mblur" x="-20%" y="-20%" width="140%" height="140%">
      <feGaussianBlur stdDeviation="20"/>
    </filter>
    <filter id="mhaze" x="-20%" y="-20%" width="140%" height="140%">
      <feGaussianBlur stdDeviation="64"/>
    </filter>
  </defs>
  <rect width="1400" height="1000" fill="url(#air)"/>
  <ellipse cx="1080" cy="180" rx="260" ry="200" fill="#fbf8ea" filter="url(#mhaze)" opacity=".9"/>
  <g filter="url(#mblur)" opacity=".9">
    <g stroke="#8aa87a" stroke-width="9" stroke-linecap="round" fill="none">
      <path d="M90 1000 C 120 800 96 690 130 560"/>
      <path d="M250 1000 C 268 820 240 700 286 600"/>
      <path d="M430 1000 C 452 830 420 690 470 580"/>
      <path d="M640 1000 C 660 840 632 700 690 610"/>
      <path d="M860 1000 C 884 830 852 690 906 596"/>
      <path d="M1090 1000 C 1112 840 1084 700 1140 620"/>
      <path d="M1300 1000 C 1320 830 1292 700 1348 604"/>
    </g>
    <g fill="#f4f6ec">
      <ellipse cx="130" cy="552" rx="26" ry="20"/>
      <ellipse cx="286" cy="592" rx="22" ry="17"/>
      <ellipse cx="470" cy="572" rx="30" ry="23"/>
      <ellipse cx="690" cy="602" rx="24" ry="19"/>
      <ellipse cx="906" cy="588" rx="28" ry="22"/>
      <ellipse cx="1140" cy="612" rx="21" ry="16"/>
      <ellipse cx="1348" cy="596" rx="26" ry="20"/>
    </g>
  </g>
  <rect width="1400" height="1000" fill="#f7f3e0" opacity=".1"/>
</svg>
